<mxfile host="65bd71144e">
    <diagram id="5JGs2AWjne60HqyosO0a" name="Page-1">
        <mxGraphModel dx="1780" dy="1349" grid="1" gridSize="10" guides="1" tooltips="1" connect="1" arrows="1" fold="1" page="1" pageScale="1" pageWidth="827" pageHeight="1169" math="0" shadow="0">
            <root>
                <mxCell id="0"/>
                <mxCell id="1" parent="0"/>
                <mxCell id="7" value="" style="edgeStyle=none;html=1;" parent="1" source="2" target="6" edge="1">
                    <mxGeometry relative="1" as="geometry"/>
                </mxCell>
                <mxCell id="8" value="" style="edgeStyle=none;html=1;" parent="1" source="2" target="6" edge="1">
                    <mxGeometry relative="1" as="geometry"/>
                </mxCell>
                <mxCell id="9" value="" style="edgeStyle=none;html=1;" parent="1" source="2" target="6" edge="1">
                    <mxGeometry relative="1" as="geometry"/>
                </mxCell>
                <mxCell id="11" value="" style="edgeStyle=none;html=1;" parent="1" source="2" target="6" edge="1">
                    <mxGeometry relative="1" as="geometry"/>
                </mxCell>
                <mxCell id="12" value="" style="edgeStyle=none;html=1;" parent="1" source="2" target="6" edge="1">
                    <mxGeometry relative="1" as="geometry"/>
                </mxCell>
                <mxCell id="13" style="edgeStyle=none;html=1;entryX=0;entryY=0.5;entryDx=0;entryDy=0;" parent="1" source="2" target="14" edge="1">
                    <mxGeometry relative="1" as="geometry">
                        <mxPoint x="480" y="400" as="targetPoint"/>
                    </mxGeometry>
                </mxCell>
                <mxCell id="40" style="edgeStyle=none;html=1;entryX=0;entryY=0.5;entryDx=0;entryDy=0;" parent="1" source="2" target="38" edge="1">
                    <mxGeometry relative="1" as="geometry"/>
                </mxCell>
                <mxCell id="2" value="Creation Libre" style="html=1;" parent="1" vertex="1">
                    <mxGeometry x="280" y="350" width="120" height="50" as="geometry"/>
                </mxCell>
                <mxCell id="20" value="" style="edgeStyle=none;html=1;" parent="1" source="3" target="19" edge="1">
                    <mxGeometry relative="1" as="geometry"/>
                </mxCell>
                <mxCell id="53" style="edgeStyle=none;html=1;exitX=1;exitY=0.5;exitDx=0;exitDy=0;entryX=0;entryY=0.5;entryDx=0;entryDy=0;" edge="1" parent="1" source="3" target="52">
                    <mxGeometry relative="1" as="geometry"/>
                </mxCell>
                <mxCell id="55" style="edgeStyle=none;html=1;exitX=1;exitY=0.5;exitDx=0;exitDy=0;entryX=0;entryY=0.5;entryDx=0;entryDy=0;" edge="1" parent="1" source="3" target="54">
                    <mxGeometry relative="1" as="geometry"/>
                </mxCell>
                <mxCell id="3" value="Construction Guidée" style="html=1;" parent="1" vertex="1">
                    <mxGeometry x="280" y="480" width="120" height="50" as="geometry"/>
                </mxCell>
                <mxCell id="32" value="" style="edgeStyle=none;html=1;" parent="1" source="4" target="31" edge="1">
                    <mxGeometry relative="1" as="geometry"/>
                </mxCell>
                <mxCell id="37" style="edgeStyle=none;html=1;exitX=1;exitY=0.5;exitDx=0;exitDy=0;entryX=0;entryY=0.5;entryDx=0;entryDy=0;" parent="1" source="4" target="36" edge="1">
                    <mxGeometry relative="1" as="geometry"/>
                </mxCell>
                <mxCell id="44" style="edgeStyle=none;html=1;exitX=1;exitY=0.5;exitDx=0;exitDy=0;entryX=0;entryY=0.5;entryDx=0;entryDy=0;" edge="1" parent="1" source="4" target="43">
                    <mxGeometry relative="1" as="geometry"/>
                </mxCell>
                <mxCell id="4" value="Multijoueur&lt;br&gt;(voir concours &lt;br&gt;minecraft)" style="html=1;" parent="1" vertex="1">
                    <mxGeometry x="250" y="730" width="120" height="50" as="geometry"/>
                </mxCell>
                <mxCell id="47" style="edgeStyle=none;html=1;exitX=0.75;exitY=0;exitDx=0;exitDy=0;entryX=0.75;entryY=1;entryDx=0;entryDy=0;" edge="1" parent="1" source="6" target="45">
                    <mxGeometry relative="1" as="geometry"/>
                </mxCell>
                <mxCell id="50" style="edgeStyle=none;html=1;exitX=0.5;exitY=0;exitDx=0;exitDy=0;" edge="1" parent="1" source="6">
                    <mxGeometry relative="1" as="geometry">
                        <mxPoint x="480" y="230" as="targetPoint"/>
                    </mxGeometry>
                </mxCell>
                <mxCell id="51" style="edgeStyle=none;html=1;exitX=0.75;exitY=0;exitDx=0;exitDy=0;entryX=0.5;entryY=1;entryDx=0;entryDy=0;" edge="1" parent="1" source="6" target="49">
                    <mxGeometry relative="1" as="geometry"/>
                </mxCell>
                <mxCell id="57" value="" style="edgeStyle=none;html=1;" edge="1" parent="1" source="6" target="56">
                    <mxGeometry relative="1" as="geometry"/>
                </mxCell>
                <mxCell id="6" value="Zone de creation" style="html=1;" parent="1" vertex="1">
                    <mxGeometry x="380" y="220" width="120" height="50" as="geometry"/>
                </mxCell>
                <mxCell id="16" value="" style="edgeStyle=none;html=1;" parent="1" source="14" target="15" edge="1">
                    <mxGeometry relative="1" as="geometry"/>
                </mxCell>
                <mxCell id="18" style="edgeStyle=none;html=1;exitX=1;exitY=0.5;exitDx=0;exitDy=0;" parent="1" source="14" target="17" edge="1">
                    <mxGeometry relative="1" as="geometry"/>
                </mxCell>
                <mxCell id="42" style="edgeStyle=none;html=1;exitX=1;exitY=0.5;exitDx=0;exitDy=0;entryX=0;entryY=0.5;entryDx=0;entryDy=0;" parent="1" source="14" target="41" edge="1">
                    <mxGeometry relative="1" as="geometry"/>
                </mxCell>
                <mxCell id="14" value="Ominitrix sur &lt;br&gt;l'avant bras" style="html=1;" parent="1" vertex="1">
                    <mxGeometry x="480" y="330" width="110" height="50" as="geometry"/>
                </mxCell>
                <mxCell id="15" value="Placement de piece" style="html=1;" parent="1" vertex="1">
                    <mxGeometry x="670" y="270" width="110" height="50" as="geometry"/>
                </mxCell>
                <mxCell id="17" value="Peindre des pieces" style="html=1;" parent="1" vertex="1">
                    <mxGeometry x="670" y="340" width="110" height="50" as="geometry"/>
                </mxCell>
                <mxCell id="22" value="" style="edgeStyle=none;html=1;" parent="1" source="19" target="21" edge="1">
                    <mxGeometry relative="1" as="geometry"/>
                </mxCell>
                <mxCell id="23" value="" style="edgeStyle=none;html=1;" parent="1" source="19" target="21" edge="1">
                    <mxGeometry relative="1" as="geometry"/>
                </mxCell>
                <mxCell id="25" style="edgeStyle=none;html=1;exitX=1;exitY=0.5;exitDx=0;exitDy=0;entryX=0;entryY=0.5;entryDx=0;entryDy=0;" parent="1" source="19" target="24" edge="1">
                    <mxGeometry relative="1" as="geometry"/>
                </mxCell>
                <mxCell id="19" value="Menu de notices" style="html=1;" parent="1" vertex="1">
                    <mxGeometry x="480" y="480" width="120" height="50" as="geometry"/>
                </mxCell>
                <mxCell id="21" value="Pdf interactif en 3D" style="html=1;" parent="1" vertex="1">
                    <mxGeometry x="680" y="480" width="120" height="50" as="geometry"/>
                </mxCell>
                <mxCell id="24" value="Chaque etape les &lt;br&gt;pieces aparaisse" style="html=1;rounded=0;align=center;" parent="1" vertex="1">
                    <mxGeometry x="680" y="540" width="120" height="50" as="geometry"/>
                </mxCell>
                <mxCell id="27" style="edgeStyle=none;html=1;exitX=1;exitY=0.25;exitDx=0;exitDy=0;entryX=0;entryY=0.5;entryDx=0;entryDy=0;" parent="1" source="26" target="2" edge="1">
                    <mxGeometry relative="1" as="geometry"/>
                </mxCell>
                <mxCell id="28" style="edgeStyle=none;html=1;exitX=1;exitY=0.5;exitDx=0;exitDy=0;entryX=0;entryY=0.5;entryDx=0;entryDy=0;" parent="1" source="26" target="3" edge="1">
                    <mxGeometry relative="1" as="geometry"/>
                </mxCell>
                <mxCell id="29" style="edgeStyle=none;html=1;exitX=1;exitY=0.5;exitDx=0;exitDy=0;entryX=0;entryY=0.5;entryDx=0;entryDy=0;" parent="1" source="26" target="4" edge="1">
                    <mxGeometry relative="1" as="geometry"/>
                </mxCell>
                <mxCell id="26" value="Salle de selection" style="html=1;" parent="1" vertex="1">
                    <mxGeometry x="60" y="480" width="120" height="50" as="geometry"/>
                </mxCell>
                <mxCell id="31" value="Choix du thème&lt;br&gt;&amp;nbsp;aléatoire &lt;br&gt;et du temps" style="html=1;" parent="1" vertex="1">
                    <mxGeometry x="450" y="730" width="120" height="50" as="geometry"/>
                </mxCell>
                <mxCell id="36" value="Creation des equipes" style="html=1;" parent="1" vertex="1">
                    <mxGeometry x="450" y="800" width="120" height="50" as="geometry"/>
                </mxCell>
                <mxCell id="38" value="Partage de la salle&lt;br&gt;Pour creer ensemble" style="html=1;" parent="1" vertex="1">
                    <mxGeometry x="480" y="400" width="110" height="50" as="geometry"/>
                </mxCell>
                <mxCell id="41" value="Menu radiale" style="html=1;" parent="1" vertex="1">
                    <mxGeometry x="670" y="400" width="110" height="50" as="geometry"/>
                </mxCell>
                <mxCell id="43" value="Contraintes &lt;br&gt;des pieces" style="html=1;" vertex="1" parent="1">
                    <mxGeometry x="450" y="865" width="120" height="50" as="geometry"/>
                </mxCell>
                <mxCell id="45" value="Pieces deja dispo &lt;br&gt;dans la scène" style="html=1;" vertex="1" parent="1">
                    <mxGeometry x="660" y="170" width="120" height="50" as="geometry"/>
                </mxCell>
                <mxCell id="49" value="Pieces selectionner&lt;br&gt;&amp;nbsp;reçament" style="html=1;" vertex="1" parent="1">
                    <mxGeometry x="530" y="110" width="120" height="50" as="geometry"/>
                </mxCell>
                <mxCell id="52" value="Apparision &lt;br&gt;des pieces" style="html=1;" vertex="1" parent="1">
                    <mxGeometry x="480" y="550" width="120" height="50" as="geometry"/>
                </mxCell>
                <mxCell id="54" value="Tips des pieces" style="html=1;" vertex="1" parent="1">
                    <mxGeometry x="480" y="630" width="120" height="50" as="geometry"/>
                </mxCell>
                <mxCell id="56" value="Fantome de&amp;nbsp;&lt;br&gt;la piece en cour" style="html=1;" vertex="1" parent="1">
                    <mxGeometry x="380" y="90" width="120" height="50" as="geometry"/>
                </mxCell>
            </root>
        </mxGraphModel>
    </diagram>
</mxfile>